<?xml version="1.0" encoding="UTF-8" standalone="no"?>
<svg
   xmlns:dc="http://purl.org/dc/elements/1.1/"
   xmlns:cc="http://creativecommons.org/ns#"
   xmlns:rdf="http://www.w3.org/1999/02/22-rdf-syntax-ns#"
   xmlns:svg="http://www.w3.org/2000/svg"
   xmlns="http://www.w3.org/2000/svg"
   xmlns:sodipodi="http://sodipodi.sourceforge.net/DTD/sodipodi-0.dtd"
   xmlns:inkscape="http://www.inkscape.org/namespaces/inkscape"
   width="275.3199951171875px"
   height="88.439990234375px"
   viewBox="112.34000244140626 30.7800048828125 275.3199951171875 88.439990234375"
   style="background: rgba(0, 0, 0, 0) none repeat scroll 0% 0%;"
   preserveAspectRatio="xMidYMid"
   version="1.1"
   id="svg35"
   sodipodi:docname="Dig-discord2.svg"
   inkscape:version="1.0.1 (3bc2e813f5, 2020-09-07)">
  <metadata
     id="metadata39">
    <rdf:RDF>
      <cc:Work
         rdf:about="">
        <dc:format>image/svg+xml</dc:format>
        <dc:type
           rdf:resource="http://purl.org/dc/dcmitype/StillImage" />
        <dc:title></dc:title>
      </cc:Work>
    </rdf:RDF>
  </metadata>
  <sodipodi:namedview
     pagecolor="#ffffff"
     bordercolor="#666666"
     borderopacity="1"
     objecttolerance="10"
     gridtolerance="10"
     guidetolerance="10"
     inkscape:pageopacity="0"
     inkscape:pageshadow="2"
     inkscape:window-width="1600"
     inkscape:window-height="837"
     id="namedview37"
     showgrid="false"
     inkscape:zoom="4.8706958"
     inkscape:cx="137.66"
     inkscape:cy="44.219994"
     inkscape:window-x="-8"
     inkscape:window-y="-8"
     inkscape:window-maximized="1"
     inkscape:current-layer="svg35" />
  <defs
     id="defs25">
    <filter
       id="editing-extrusion"
       x="-100%"
       y="-100%"
       width="300%"
       height="300%">
      <feFlood
         result="color1"
         flood-color="#727272"
         id="feFlood10" />
      <feConvolveMatrix
         order="4,4"
         divisor="1"
         kernelMatrix="1 0 0 0 0 1 0 0 0 0 1 0 0 0 0 1"
         in="SourceAlpha"
         result="extrude"
         id="feConvolveMatrix12" />
      <feComposite
         in="color1"
         in2="extrude"
         result="comp-extrude"
         operator="in"
         id="feComposite14" />
      <feOffset
         dx="2"
         dy="2"
         in="comp-extrude"
         result="offset-extrude"
         id="feOffset16" />
      <feMerge
         id="feMerge22">
        <feMergeNode
           in="offset-extrude"
           id="feMergeNode18" />
        <feMergeNode
           in="SourceGraphic"
           id="feMergeNode20" />
      </feMerge>
    </filter>
  </defs>
  <g
     filter="url(#editing-extrusion)"
     id="g31"
     transform="translate(-2.6690232,-9.0336169)">
    <g
       transform="translate(157.0547,93.509766)"
       id="g29">
      <path
         d="m 12.85,-20.82 v 0 0 q 0,-2.63 -2.08,-2.63 v 0 0 q -1.85,0 -2.23,1.22 v 0 0 q -0.17,0.53 -0.17,1.75 v 0 0 q 0,1.22 0.07,2.48 v 0 0 q 0.07,1.25 0.19,2 v 0 0 q 0.12,0.74 0.26,1.27 v 0 0 q 0.13,0.53 0.27,0.78 v 0 0 q 0.14,0.26 0.26,0.43 v 0 0 q 0.25,0.38 0.25,0.57 v 0 0 q 0,0.18 -0.2,0.49 v 0 0 q -0.21,0.31 -0.45,0.8 v 0 0 q -0.65,1.32 -0.65,5.47 v 0 0 q 0,2.58 0.52,3.22 v 0 0 q 0.56,0.68 1.72,0.68 v 0 0 q 1.15,0 1.48,-0.36 v 0 0 q 0.33,-0.36 0.47,-0.61 v 0 0 q 0.14,-0.24 0.21,-0.77 v 0 0 q 0.08,-0.76 0.08,-2.09 v 0 -0.22 0 q 0,-4.07 -0.65,-5.35 v 0 0 q -0.24,-0.46 -0.44,-0.78 v 0 0 q -0.21,-0.31 -0.21,-0.49 v 0 0 q 0,-0.18 0.14,-0.36 v 0 0 q 0.14,-0.18 0.32,-0.55 v 0 0 q 0.19,-0.37 0.38,-1.03 v 0 0 q 0.46,-1.63 0.46,-5.92 z M 1.08,0.09 1.01,-0.17 v 0 q 2.07,-1.91 2.07,-6.07 v 0 0 q 0,-3.57 -0.65,-4.95 v 0 0 Q 2,-12.1 1.61,-12.44 v 0 0 q -0.4,-0.34 -0.4,-0.51 v 0 0 q 0,-0.16 0.19,-0.34 v 0 0 q 0.19,-0.18 0.47,-0.52 v 0 0 q 0.28,-0.34 0.56,-0.96 v 0 0 q 0.65,-1.43 0.65,-4.4 v 0 0 q 0,-2.96 -0.46,-4.19 v 0 0 q -0.45,-1.23 -1.61,-2.33 v 0 0 q 0,-0.61 0.94,-0.9 v 0 0 q 0.37,-0.1 1.03,-0.1 v 0 0 q 0.66,0 1.42,0.42 v 0 0 q 0.76,0.43 1.1,0.86 v 0 l 0.34,0.42 v 0 q 1.51,-1.7 5.75,-1.7 v 0 0 q 3.21,0 4.83,1.5 v 0 0 q 2.07,1.93 2.07,5.95 v 0 0 q 0,4.58 1.33,5.98 v 0 0 q 0.16,0.17 0.16,0.32 v 0 0 q 0,0.16 -0.16,0.32 v 0 0 q -0.15,0.16 -0.36,0.5 v 0 0 q -0.22,0.35 -0.44,0.93 v 0 0 q -0.53,1.38 -0.53,4.88 v 0 0 q 0,3.51 -1.8,5.34 v 0 0 q -1.8,1.82 -4.97,1.82 v 0 0 q -4.2,0 -5.88,-1.96 v 0 0 Q 5.11,0.12 3.85,0.65 v 0 0 q -0.52,0.2 -1.17,0.2 v 0 0 Q 2.03,0.85 1.59,0.6 v 0 0 Q 1.15,0.34 1.08,0.09 Z m 22.26,-22.48 v 0 0 q 1.49,0 2.57,1.32 v 0 0 q 0.53,-0.79 1.69,-1.18 v 0 0 q 0.43,-0.14 0.87,-0.14 v 0 0 q 0.45,0 0.77,0.1 v 0 0 q 0.33,0.09 0.48,0.23 v 0 0 q 0.34,0.27 0.39,0.6 v 0 0 q -1.07,1.04 -1.48,2.18 v 0 0 q -0.4,1.15 -0.4,3.01 v 0 0 q 0,1.86 0.17,2.93 v 0 0 q 0.17,1.07 0.43,1.54 v 0 0 q 0.26,0.47 0.5,0.71 v 0 0 q 0.25,0.24 0.42,0.37 v 0 0 q 0.17,0.12 0.17,0.25 v 0 0 q 0,0.13 -0.17,0.26 v 0 0 q -0.17,0.13 -0.42,0.4 v 0 0 q -0.24,0.27 -0.5,0.74 v 0 0 q -0.6,1.07 -0.6,3.4 v 0 0 q 0,2.32 0.41,3.49 v 0 0 q 0.41,1.17 1.47,2.13 v 0 0 q 0,0.55 -0.87,0.82 v 0 0 q -0.32,0.1 -0.91,0.1 v 0 0 q -0.58,0 -1.22,-0.33 v 0 0 Q 26.47,0.21 26.2,-0.12 v 0 l -0.29,-0.32 v 0 q -0.53,0.78 -1.69,1.16 v 0 0 q -0.43,0.15 -0.99,0.15 v 0 0 q -0.57,0 -0.98,-0.23 v 0 0 Q 21.84,0.41 21.77,0.17 v 0 L 21.7,-0.05 v 0 q 1.06,-0.96 1.47,-2.13 v 0 0 q 0.41,-1.17 0.41,-2.84 v 0 0 q 0,-1.68 -0.17,-2.64 v 0 0 q -0.17,-0.95 -0.42,-1.41 v 0 0 q -0.24,-0.47 -0.5,-0.74 v 0 0 q -0.26,-0.27 -0.43,-0.4 v 0 0 q -0.17,-0.13 -0.17,-0.26 v 0 0 q 0,-0.13 0.17,-0.25 v 0 0 q 0.17,-0.13 0.43,-0.37 v 0 0 q 0.26,-0.24 0.5,-0.7 v 0 0 q 0.59,-1.13 0.59,-3.73 v 0 0 q 0,-2.6 -0.4,-3.74 v 0 0 q -0.4,-1.15 -1.48,-2.2 v 0 0 q 0,-0.55 0.88,-0.83 v 0 0 q 0.32,-0.1 0.76,-0.1 z m 2.53,-7.59 v 0 l 3.59,3.15 -3.6,3.25 -0.91,-0.79 v 0 q -0.9,-0.77 -1.79,-1.56 v 0 l -0.91,-0.78 v 0 q 0,-0.1 1.74,-1.68 v 0 0 q 1.73,-1.59 1.88,-1.59 z m 18.2,27.84 v 0 0 q -1.62,1.8 -3.58,1.8 v 0 0 q -1.95,0 -3.52,-0.72 v 0 0 q -1.56,-0.72 -2.58,-2.19 v 0 0 q -1.01,-1.47 -1.01,-3.4 v 0 0 q 0,-1.16 -0.23,-1.97 v 0 0 q -0.23,-0.81 -0.52,-1.1 v 0 0 q -0.28,-0.29 -0.51,-0.48 v 0 0 q -0.23,-0.19 -0.23,-0.28 v 0 0 q 0,-0.08 0.23,-0.31 v 0 0 q 0.23,-0.23 0.51,-0.6 v 0 0 q 0.29,-0.37 0.52,-1.44 v 0 0 q 0.23,-1.06 0.23,-2.77 v 0 0 q 0,-1.71 0.59,-3.09 v 0 0 q 0.59,-1.37 1.61,-2.16 v 0 0 q 2,-1.55 4.96,-1.55 v 0 0 q 1.35,0 2.81,0.64 v 0 0 q 1.46,0.65 2.48,1.66 v 0 0 q 0.74,-1.23 1.85,-1.72 v 0 0 q 0.45,-0.21 1.1,-0.21 v 0 0 q 0.66,0 1.21,0.19 v 0 0 q 0.78,0.27 0.87,0.7 v 0 0 q -1.33,1.16 -1.84,2.44 v 0 0 q -0.5,1.27 -0.5,3.03 v 0 0 q 0,1.76 0.17,2.62 v 0 0 q 0.17,0.86 0.42,1.3 v 0 0 q 0.25,0.44 0.5,0.7 v 0 0 q 0.26,0.27 0.43,0.39 v 0 0 q 0.17,0.13 0.17,0.24 v 0 0 q 0,0.11 -0.26,0.58 v 0 0 q -0.27,0.47 -0.59,1.02 v 0 0 q -0.84,1.44 -0.84,2.73 v 0 0 q 0,1.29 -0.02,2.18 v 0 0 q -0.02,0.89 -0.09,2.05 v 0 0 q -0.08,1.16 -0.22,2.01 v 0 0 q -0.13,0.84 -0.38,1.82 v 0 0 q -0.25,0.99 -0.59,1.68 v 0 0 q -0.34,0.69 -0.85,1.37 v 0 0 q -0.5,0.69 -1.15,1.1 v 0 0 q -1.47,0.92 -3.5,0.92 v 0 0 q -2.02,0 -3.65,-0.97 v 0 0 Q 36.44,5.09 35.89,3.23 v 0 0 Q 35.58,1.9 35.24,1.18 v 0 0 Q 34.9,0.46 34.3,-0.1 v 0 0 q 0.27,-0.21 0.83,-0.21 v 0 0 q 0.55,0 1.08,0.19 v 0 0 q 0.53,0.19 0.85,0.46 v 0 0 q 0.32,0.28 0.54,0.57 v 0 0 q 0.42,0.53 0.42,0.73 v 0 0 q 0,-0.12 0.47,-0.31 v 0 0 q 0.68,-0.3 1.16,-0.3 v 0 0 q 0.48,0 0.89,0.15 v 0 0 q 0.83,0.31 0.83,0.55 v 0 0 q 0,0.03 -0.23,0.05 v 0 0 q -0.23,0.01 -0.53,0.24 v 0 0 q -0.55,0.42 -0.55,1.26 v 0 0 q 0,0.89 0.97,1.33 v 0 0 q 0.45,0.19 0.89,0.19 v 0 0 q 0.45,0 0.82,-0.15 v 0 0 q 0.38,-0.16 0.7,-0.48 v 0 0 q 0.69,-0.72 0.69,-2.22 v 0 0 q 0,-0.72 -0.03,-2.09 v 0 0 q -0.03,-1.36 -0.03,-2 z m -1.65,-8.18 v 0 0 q -0.16,-0.1 -0.16,-0.17 v 0 0 q 0,-0.07 0.16,-0.18 v 0 0 q 0.15,-0.11 0.36,-0.36 v 0 0 q 0.22,-0.25 0.44,-0.66 v 0 0 q 0.53,-1.01 0.53,-3.37 v 0 0 q 0,-4.25 -2.84,-4.25 v 0 0 q -2.73,0 -2.73,4.25 v 0 0 q 0,1.47 0.24,2.46 v 0 0 q 0.24,0.98 0.51,1.3 v 0 0 q 0.27,0.33 0.51,0.53 v 0 0 q 0.24,0.21 0.24,0.28 v 0 0 q 0,0.07 -0.15,0.18 v 0 0 q -0.15,0.11 -0.38,0.34 v 0 0 q -0.22,0.23 -0.44,0.57 v 0 0 q -0.53,0.79 -0.53,2.34 v 0 0 q 0,1.56 0.83,2.44 v 0 0 q 0.83,0.88 1.96,0.88 v 0 0 q 1.14,0 1.96,-0.87 v 0 0 q 0.82,-0.88 0.82,-2.45 v 0 0 q 0,-2.29 -1.33,-3.26 z m 10.56,0.95 v 0 0 q -0.16,0 -0.29,-0.23 v 0 0 q -0.14,-0.23 -0.14,-0.55 v 0 -1.64 0 q 0,-0.65 0.31,-0.75 v 0 l 0.12,-0.04 v 0 q 1.5,0.22 5.13,0.22 v 0 0 q 3.64,0 4.49,-0.11 v 0 0 q 0.85,-0.11 0.92,-0.07 v 0 0 q 0.31,0.15 0.31,0.75 v 0 1.64 0 q 0,0.7 -0.43,0.78 v 0 0 q -1.74,-0.22 -5.39,-0.22 v 0 0 q -3.65,0 -5.03,0.22 z m 24.33,4.4 v 0 -1.11 0 q 0,-1.88 -0.36,-2.66 v 0 0 q -0.37,-0.78 -0.58,-1.07 v 0 0 q -0.2,-0.29 -0.35,-0.44 v 0 0 q -0.16,-0.14 -0.16,-0.22 v 0 0 q 0,-0.07 0.23,-0.29 v 0 0 q 0.23,-0.21 0.51,-0.55 v 0 0 q 0.27,-0.35 0.5,-1.36 v 0 0 q 0.23,-1.02 0.23,-2.52 v 0 0 q 0,-4.45 -2.21,-4.45 v 0 0 q -2.21,0 -2.21,4.45 v 0 0 q 0,3.43 1.33,4.53 v 0 0 q 0.15,0.13 0.14,0.19 v 0 0 q 0,0.06 -0.24,0.26 v 0 0 q -0.23,0.2 -0.4,0.45 v 0 0 q -0.17,0.26 -0.37,0.7 v 0 0 q -0.46,0.98 -0.46,2.42 v 0 0 q 0,1.44 0,1.87 v 0 0 q 0.01,0.43 0.06,1.05 v 0 0 q 0.04,0.63 0.11,0.93 v 0 0 q 0.08,0.29 0.24,0.67 v 0 0 q 0.17,0.38 0.41,0.55 v 0 0 q 0.59,0.39 1.16,0.39 v 0 0 q 0.56,0 0.83,-0.04 v 0 0 q 0.26,-0.04 0.48,-0.16 v 0 0 q 0.21,-0.11 0.36,-0.21 v 0 0 q 0.16,-0.1 0.28,-0.35 v 0 0 q 0.12,-0.25 0.2,-0.41 v 0 0 q 0.09,-0.16 0.14,-0.53 v 0 0 q 0.05,-0.37 0.08,-0.59 v 0 0 q 0.05,-0.51 0.05,-1.5 z m 1.87,3.79 v 0 0 Q 77.45,1.2 74.39,1.2 v 0 0 q -2.56,0 -4.54,-1.85 v 0 0 Q 68.89,-1.54 68.31,-2.9 v 0 0 q -0.58,-1.36 -0.58,-2.6 v 0 0 q 0,-1.25 -0.11,-1.98 v 0 0 q -0.1,-0.72 -0.24,-1.15 v 0 0 q -0.15,-0.43 -0.37,-0.79 v 0 0 q -0.22,-0.36 -0.38,-0.5 v 0 0 q -0.15,-0.15 -0.36,-0.32 v 0 0 q -0.22,-0.17 -0.25,-0.2 v 0 0 q 0,-0.07 0.18,-0.21 v 0 0 q 0.18,-0.13 0.42,-0.41 v 0 0 q 0.25,-0.27 0.49,-0.71 v 0 0 q 0.62,-1.1 0.62,-3.42 v 0 0 q 0,-3.44 1.59,-5.33 v 0 0 q 1.6,-1.88 4.1,-1.88 v 0 0 q 2.49,0 3.84,1.81 v 0 0 q -0.34,-4.07 -1.91,-7.08 v 0 0 q 0,-0.6 0.96,-0.9 v 0 0 q 0.36,-0.11 0.85,-0.11 v 0 0 q 1.68,0 2.82,1.8 v 0 0 q 0.09,-0.17 0.42,-0.56 v 0 0 q 0.33,-0.38 0.64,-0.62 v 0 0 q 0.84,-0.62 1.68,-0.62 v 0 0 q 0.85,0 1.29,0.26 v 0 0 q 0.45,0.26 0.52,0.5 v 0 l 0.06,0.25 v 0 q -1.16,1.49 -1.61,3.22 v 0 0 q -0.45,1.74 -0.45,4.92 v 0 4.34 0 q 0,3.5 1.71,4.54 v 0 0 q 0.2,0.12 0.2,0.19 v 0 0 q 0,0.07 -0.19,0.19 v 0 0 q -0.19,0.12 -0.46,0.37 v 0 0 q -0.27,0.26 -0.55,0.67 v 0 0 q -0.64,1.01 -0.71,3.08 v 0 0 q 0.01,2.3 0.47,3.6 v 0 0 q 0.45,1.3 1.59,2.4 v 0 0 q 0,0.61 -0.95,0.9 v 0 0 Q 83.28,0.87 82.8,0.87 v 0 0 q -1.97,0 -3.62,-2.05 z m 9.14,-21.21 v 0 0 q 1.49,0 2.56,1.32 v 0 0 q 0.53,-0.79 1.7,-1.18 v 0 0 q 0.42,-0.14 0.87,-0.14 v 0 0 q 0.44,0 0.77,0.1 v 0 0 q 0.32,0.09 0.47,0.23 v 0 0 q 0.35,0.27 0.4,0.6 v 0 0 q -1.08,1.04 -1.48,2.18 v 0 0 q -0.4,1.15 -0.4,3.01 v 0 0 q 0,1.86 0.17,2.93 v 0 0 q 0.17,1.07 0.43,1.54 v 0 0 q 0.25,0.47 0.5,0.71 v 0 0 q 0.25,0.24 0.42,0.37 v 0 0 q 0.17,0.12 0.17,0.25 v 0 0 q 0,0.13 -0.17,0.26 v 0 0 q -0.17,0.13 -0.42,0.4 v 0 0 q -0.25,0.27 -0.5,0.74 v 0 0 q -0.6,1.07 -0.6,3.4 v 0 0 q 0,2.32 0.41,3.49 v 0 0 q 0.41,1.17 1.47,2.13 v 0 0 q 0,0.55 -0.87,0.82 v 0 0 q -0.33,0.1 -0.91,0.1 v 0 0 q -0.58,0 -1.22,-0.33 v 0 0 Q 91.45,0.21 91.17,-0.12 v 0 l -0.29,-0.32 v 0 q -0.53,0.78 -1.69,1.16 v 0 0 Q 88.76,0.87 88.2,0.87 v 0 0 q -0.56,0 -0.97,-0.23 v 0 0 Q 86.82,0.41 86.75,0.17 v 0 l -0.07,-0.22 v 0 q 1.06,-0.96 1.47,-2.13 v 0 0 q 0.41,-1.17 0.41,-2.84 v 0 0 q 0,-1.68 -0.17,-2.64 v 0 0 q -0.17,-0.95 -0.42,-1.41 v 0 0 q -0.25,-0.47 -0.5,-0.74 v 0 0 q -0.26,-0.27 -0.43,-0.4 v 0 0 q -0.17,-0.13 -0.17,-0.26 v 0 0 q 0,-0.13 0.17,-0.25 v 0 0 q 0.17,-0.13 0.43,-0.37 v 0 0 q 0.25,-0.24 0.49,-0.7 v 0 0 q 0.6,-1.13 0.6,-3.73 v 0 0 q 0,-2.6 -0.4,-3.74 v 0 0 q -0.4,-1.15 -1.48,-2.2 v 0 0 q 0,-0.55 0.87,-0.83 v 0 0 q 0.33,-0.1 0.77,-0.1 z m 2.53,-7.59 v 0 l 3.59,3.15 -3.61,3.25 -0.9,-0.79 v 0 q -0.91,-0.77 -1.8,-1.56 v 0 l -0.9,-0.78 v 0 q 0,-0.1 1.73,-1.68 v 0 0 q 1.74,-1.59 1.89,-1.59 z m 6.77,25.4 v 0 l 0.19,-2.02 v 0 q 0,-1.07 -0.72,-1.88 v 0 0 q 0.25,-0.24 0.58,-0.24 v 0 0 q 0.32,0 0.67,0.1 v 0 0 q 0.35,0.09 0.76,0.4 v 0 0 q 0.41,0.31 0.65,0.63 v 0 0 q 0.24,0.33 0.4,0.67 v 0 0 q 0.29,0.6 0.29,0.8 v 0 0 q 1.01,-0.8 1.73,-0.8 v 0 0 q 0.73,0 1.07,0.14 v 0 0 q 0.34,0.13 0.48,0.35 v 0 0 q 0.24,0.36 0.24,0.59 v 0 0.05 0 q -0.74,0.15 -1.27,0.64 v 0 0 q -0.53,0.48 -0.53,1.4 v 0 0 q 0,0.91 0.66,1.42 v 0 0 q 0.66,0.5 1.53,0.5 v 0 0 q 0.87,0 1.41,-0.25 v 0 0 q 0.54,-0.24 0.81,-0.64 v 0 0 q 0.53,-0.77 0.53,-1.5 v 0 0 q 0,-1.83 -0.98,-2.92 v 0 0 q -0.98,-1.08 -2.27,-1.08 v 0 0 q -0.44,0 -1,0.14 v 0 0 q -0.57,0.13 -0.63,0.13 v 0 0 q -0.06,0 -0.17,-0.06 v 0 0 q -0.11,-0.06 -0.23,-0.43 v 0 0 q -0.37,-1.2 -1.28,-1.93 v 0 0 q -2.89,-2.05 -2.89,-5.31 v 0 0 q 0,-3.26 1.94,-4.99 v 0 0 q 1.94,-1.73 5.26,-1.73 v 0 0 q 1.67,0 2.94,0.53 v 0 0 q 1.26,0.54 1.98,1.12 v 0 0 q 1.64,1.34 1.64,3.64 v 0 l -0.39,2.21 v 0 q 0,0.92 0.73,1.67 v 0 0 q -0.24,0.22 -0.72,0.22 v 0 0 q -0.48,0 -0.92,-0.24 v 0 0 q -0.44,-0.25 -0.73,-0.59 v 0 0 q -0.3,-0.34 -0.52,-0.72 v 0 0 q -0.41,-0.67 -0.41,-0.87 v 0 0 q -1.07,0.72 -1.74,0.72 v 0 0 q -0.67,0 -0.98,-0.13 v 0 0 q -0.32,-0.13 -0.46,-0.34 v 0 0 q -0.2,-0.34 -0.2,-0.61 v 0 0 q 0.97,-0.12 1.63,-0.6 v 0 0 q 0.66,-0.48 0.66,-1.3 v 0 0 q 0,-0.82 -0.63,-1.21 v 0 0 q -0.62,-0.39 -1.56,-0.39 v 0 0 q -2.27,0 -2.27,2.58 v 0 0 q 0,2.58 1.93,3.43 v 0 0 q 0.19,0.09 0.57,0.09 v 0 0 q 0.39,0 1.12,-0.14 v 0 0 q 0.74,-0.14 0.85,-0.14 v 0 0 q 0.11,0 0.23,0.41 v 0 0 q 0.44,1.34 1.18,1.76 v 0 0 q 1.6,1.18 2.45,2.79 v 0 0 q 0.85,1.61 0.85,3.08 v 0 0 q 0,1.48 -0.49,2.63 v 0 0 q -0.49,1.14 -1.43,2.05 v 0 0 q -2.02,1.95 -5.78,1.95 v 0 0 q -2.29,0 -4.44,-1.47 v 0 0 q -1.01,-0.69 -1.66,-1.82 v 0 0 q -0.66,-1.14 -0.66,-2.49 z m 31.63,-7.43 v 0 0 q -0.15,0.41 -0.82,0.41 v 0 0 q -0.67,0 -1.35,-0.46 v 0 0 q -0.68,-0.45 -1.03,-0.89 v 0 l -0.34,-0.45 v 0 q -0.66,0.43 -1.36,0.43 v 0 0 q -0.7,0 -1.06,-0.1 v 0 0 q -0.36,-0.09 -0.55,-0.23 v 0 0 q -0.19,-0.13 -0.31,-0.3 v 0 0 q -0.19,-0.24 -0.19,-0.43 v 0 l 0.02,-0.09 v 0 q 0.91,0 1.65,-1.08 v 0 0 q 0.74,-1.09 0.74,-2.09 v 0 0 q 0,-2.04 -1.98,-2.04 v 0 0 q -1.06,0 -1.37,0.42 v 0 0 q -0.32,0.42 -0.45,0.7 v 0 0 q -0.13,0.28 -0.2,0.88 v 0 0 q -0.06,0.79 -0.06,2.15 v 0 0 q 0,1.37 0.17,2.23 v 0 0 q 0.17,0.87 0.42,1.28 v 0 0 q 0.26,0.41 0.51,0.65 v 0 0 q 0.25,0.24 0.42,0.36 v 0 0 q 0.17,0.12 0.17,0.2 v 0 0 q 0,0.09 -0.17,0.2 v 0 0 q -0.17,0.11 -0.42,0.33 v 0 0 q -0.25,0.22 -0.51,0.62 v 0 0 q -0.59,0.92 -0.59,3.07 v 0 0 q 0,2.16 0.81,3.24 v 0 0 q 0.81,1.09 2.3,1.09 v 0 0 q 1.62,0 2.32,-1.2 v 0 0 q 0.72,-1.23 0.72,-3.71 v 0 0 q 0,-0.31 0.37,-0.48 v 0 0 q 0.36,-0.17 0.92,-0.17 v 0 0 q 0.55,0 0.99,0.19 v 0 0 q 0.44,0.19 0.44,0.51 v 0 0 q 0,4.16 -1.94,6.21 v 0 0 Q 125.87,1.2 123.2,1.2 v 0 0 q -6.8,0 -7.72,-7.2 v 0 0 q -0.28,-2.24 -0.68,-2.93 v 0 0 q -0.4,-0.69 -0.61,-0.94 v 0 0 q -0.2,-0.25 -0.34,-0.37 v 0 0 q -0.13,-0.12 -0.13,-0.2 v 0 -0.04 0 q 0,-0.08 0.17,-0.2 v 0 0 q 0.17,-0.12 0.42,-0.37 v 0 0 q 0.26,-0.25 0.5,-0.67 v 0 0 q 0.6,-0.99 0.6,-3.23 v 0 0 q 0.08,-3.52 2.03,-5.49 v 0 0 q 1.95,-1.96 5.2,-1.96 v 0 0 q 2.05,0 4.17,1.26 v 0 0 q 1.04,0.62 1.71,1.7 v 0 0 q 0.68,1.09 0.68,2.09 v 0 0 q 0,1.01 -0.24,2.19 v 0 0 q -0.24,1.18 -0.24,1.75 v 0 0 q 0,0.58 0.53,1.4 z m 8.78,5.77 v 0 0 q 0,4.33 2.14,4.33 v 0 0 q 2.27,0 2.27,-4.5 v 0 0 q 0,-1.26 -0.2,-2.12 v 0 0 q -0.21,-0.85 -0.43,-1.13 v 0 0 q -0.22,-0.29 -0.52,-0.52 v 0 0 q -0.3,-0.23 -0.33,-0.28 v 0 0 q 0,-0.1 0.23,-0.32 v 0 0 q 0.23,-0.21 0.51,-0.56 v 0 0 q 0.28,-0.35 0.51,-1.37 v 0 0 q 0.23,-1.01 0.23,-2.52 v 0 0 q 0,-4.1 -2.21,-4.1 v 0 0 q -2.21,0 -2.21,4.1 v 0 0 q 0,1.51 0.23,2.52 v 0 0 q 0.23,1.02 0.5,1.37 v 0 0 q 0.28,0.35 0.51,0.56 v 0 0 q 0.23,0.22 0.23,0.3 v 0 0 q 0,0.07 -0.16,0.17 v 0 0 q -0.15,0.11 -0.36,0.35 v 0 0 q -0.2,0.24 -0.41,0.63 v 0 0 q -0.53,0.99 -0.53,3.09 z m 10.1,-2.83 v 0 0 q -0.25,0.46 -0.38,1.23 v 0 0 q -0.13,0.76 -0.13,2.14 v 0 0 q 0,1.38 -0.63,2.79 v 0 0 q -0.63,1.41 -1.69,2.28 v 0 0 q -1.06,0.87 -2.36,1.33 v 0 0 q -1.3,0.46 -2.72,0.46 v 0 0 q -1.42,0 -2.72,-0.46 v 0 0 q -1.31,-0.46 -2.36,-1.33 v 0 0 q -1.05,-0.87 -1.69,-2.28 v 0 0 q -0.63,-1.41 -0.63,-2.82 v 0 0 q 0,-1.41 -0.19,-2.24 v 0 0 q -0.2,-0.83 -0.48,-1.26 v 0 0 q -0.28,-0.43 -0.57,-0.69 v 0 0 q -0.28,-0.27 -0.48,-0.39 v 0 0 q -0.19,-0.11 -0.19,-0.17 v 0 0 q 0,-0.05 0.19,-0.18 v 0 0 q 0.2,-0.12 0.48,-0.38 v 0 0 q 0.29,-0.26 0.56,-0.68 v 0 0 q 0.68,-1.03 0.68,-3.06 v 0 0 q 0,-2.04 0.63,-3.47 v 0 0 q 0.64,-1.44 1.69,-2.33 v 0 0 q 1.05,-0.88 2.36,-1.35 v 0 0 q 1.3,-0.47 2.72,-0.47 v 0 0 q 1.42,0 2.72,0.47 v 0 0 q 1.3,0.47 2.36,1.35 v 0 0 q 1.06,0.89 1.69,2.33 v 0 0 q 0.63,1.43 0.63,2.89 v 0 0 q 0,1.45 0.18,2.31 v 0 0 q 0.18,0.86 0.43,1.3 v 0 0 q 0.25,0.44 0.49,0.7 v 0 0 q 0.25,0.27 0.43,0.39 v 0 0 q 0.18,0.13 0.18,0.2 v 0 0 q -0.02,0.02 -0.3,0.23 v 0 0 q -0.28,0.22 -0.47,0.45 v 0 0 q -0.19,0.24 -0.43,0.71 z m 17.25,-3.75 v 0 l -0.46,0.16 v 0 q -1.4,0 -2.02,-1.49 v 0 0 q -0.26,-0.6 -0.26,-0.85 v 0 -0.02 0 q -0.65,0.36 -1.23,0.36 v 0 0 q -0.59,0 -0.96,-0.16 v 0 0 q -0.37,-0.15 -0.54,-0.36 v 0 0 q -0.36,-0.46 -0.44,-0.95 v 0 0 q 0.08,0.01 0.27,0.01 v 0 0 q 0.97,0 1.61,-0.73 v 0 0 q 0.64,-0.74 0.64,-1.36 v 0 0 q 0,-0.62 -0.12,-0.96 v 0 0 q -0.13,-0.35 -0.35,-0.59 v 0 0 q -0.47,-0.51 -0.98,-0.51 v 0 0 q -0.51,0 -0.87,0.24 v 0 0 q -0.36,0.24 -0.68,0.72 v 0 0 q -0.69,1.08 -0.69,3.37 v 0 0 q 0,1.81 0.42,2.91 v 0 0 q 0.42,1.1 0.69,1.61 v 0 0 q 0.53,1.03 0.74,1.03 v 0 l -0.34,0.31 v 0 q -0.33,0.3 -0.62,0.69 v 0 0 q -0.29,0.38 -0.55,1.33 v 0 0 q -0.27,0.95 -0.27,2.69 v 0 0 q 0,1.75 0.46,2.98 v 0 0 q 0.46,1.23 1.68,2.34 v 0 0 q -0.12,0.34 -0.59,0.63 v 0 0 q -0.47,0.29 -1.05,0.29 v 0 0 q -1.71,0 -3.22,-1.83 v 0 0 q -1.36,1.83 -2.8,1.83 v 0 0 q -0.68,0 -1.13,-0.2 v 0 0 q -0.58,-0.28 -0.71,-0.72 v 0 0 q 1.19,-1.11 1.67,-2.36 v 0 0 q 0.48,-1.25 0.48,-2.88 v 0 0 q 0,-1.63 -0.13,-2.43 v 0 0 q -0.13,-0.79 -0.37,-1.27 v 0 0 q -0.25,-0.48 -0.43,-0.73 v 0 0 q -0.18,-0.24 -0.47,-0.47 v 0 0 q -0.29,-0.22 -0.31,-0.23 v 0 0 q 0,-0.06 0.18,-0.18 v 0 0 q 0.18,-0.13 0.43,-0.41 v 0 0 q 0.24,-0.27 0.5,-0.71 v 0 0 q 0.6,-1.06 0.6,-3.3 v 0 0 q 0,-2.24 -0.51,-3.57 v 0 0 q -0.52,-1.34 -1.85,-2.55 v 0 0 q 0.45,-0.89 2.18,-0.89 v 0 0 q 1.73,0 3.29,2.63 v 0 0 q 2.27,-2.99 5.21,-2.99 v 0 0 q 3.56,0 4.36,2.63 v 0 0 q 0.22,0.72 0.22,1.59 v 0 0 q 0,1.92 -1.25,3.92 v 0 0 q -0.05,0.1 -0.05,0.22 v 0 0 q 0,0.12 0.04,0.22 v 0 0 q 0.03,0.1 0.1,0.23 v 0 0 q 0.07,0.13 0.13,0.22 v 0 0 q 0.06,0.1 0.18,0.28 v 0 0 q 0.12,0.18 0.17,0.26 z m 12.22,7.85 v 0 -1.11 0 q 0,-1.88 -0.37,-2.66 v 0 0 q -0.37,-0.78 -0.57,-1.07 v 0 0 q -0.21,-0.29 -0.36,-0.44 v 0 0 q -0.15,-0.14 -0.15,-0.22 v 0 0 q 0,-0.07 0.23,-0.29 v 0 0 q 0.23,-0.21 0.5,-0.55 v 0 0 q 0.27,-0.35 0.5,-1.36 v 0 0 q 0.23,-1.02 0.23,-2.52 v 0 0 q 0,-4.45 -2.21,-4.45 v 0 0 q -2.21,0 -2.21,4.45 v 0 0 q 0,3.43 1.33,4.53 v 0 0 q 0.16,0.13 0.15,0.19 v 0 0 q -0.01,0.06 -0.24,0.26 v 0 0 q -0.23,0.2 -0.4,0.45 v 0 0 q -0.18,0.26 -0.38,0.7 v 0 0 q -0.46,0.98 -0.46,2.42 v 0 0 q 0,1.44 0.01,1.87 v 0 0 q 0.01,0.43 0.05,1.05 v 0 0 q 0.04,0.63 0.12,0.93 v 0 0 q 0.07,0.29 0.24,0.67 v 0 0 q 0.16,0.38 0.4,0.55 v 0 0 q 0.6,0.39 1.16,0.39 v 0 0 q 0.56,0 0.83,-0.04 v 0 0 q 0.26,-0.04 0.48,-0.16 v 0 0 q 0.21,-0.11 0.37,-0.21 v 0 0 q 0.15,-0.1 0.27,-0.35 v 0 0 q 0.12,-0.25 0.2,-0.41 v 0 0 q 0.09,-0.16 0.14,-0.53 v 0 0 q 0.05,-0.37 0.09,-0.59 v 0 0 q 0.05,-0.51 0.05,-1.5 z m 1.86,3.79 v 0 0 q -1.73,2.38 -4.78,2.38 v 0 0 q -2.57,0 -4.55,-1.85 v 0 0 q -0.96,-0.89 -1.54,-2.25 v 0 0 q -0.58,-1.36 -0.58,-2.6 v 0 0 q 0,-1.25 -0.1,-1.98 v 0 0 q -0.1,-0.72 -0.25,-1.15 v 0 0 q -0.15,-0.43 -0.37,-0.79 v 0 0 q -0.22,-0.36 -0.37,-0.5 v 0 0 q -0.16,-0.15 -0.37,-0.32 v 0 0 q -0.21,-0.17 -0.25,-0.2 v 0 0 q 0,-0.07 0.18,-0.21 v 0 0 q 0.18,-0.13 0.43,-0.41 v 0 0 q 0.25,-0.27 0.49,-0.71 v 0 0 q 0.61,-1.1 0.61,-3.42 v 0 0 q 0,-3.44 1.6,-5.33 v 0 0 q 1.6,-1.88 4.09,-1.88 v 0 0 q 2.5,0 3.85,1.81 v 0 0 q -0.35,-4.07 -1.92,-7.08 v 0 0 q 0,-0.6 0.96,-0.9 v 0 0 q 0.36,-0.11 0.85,-0.11 v 0 0 q 1.68,0 2.82,1.8 v 0 0 q 0.09,-0.17 0.42,-0.56 v 0 0 q 0.34,-0.38 0.64,-0.62 v 0 0 q 0.84,-0.62 1.69,-0.62 v 0 0 q 0.84,0 1.29,0.26 v 0 0 q 0.44,0.26 0.51,0.5 v 0 l 0.07,0.25 v 0 q -1.16,1.49 -1.62,3.22 v 0 0 q -0.45,1.74 -0.45,4.92 v 0 4.34 0 q 0,3.5 1.71,4.54 v 0 0 q 0.2,0.12 0.2,0.19 v 0 0 q 0,0.07 -0.18,0.19 v 0 0 q -0.19,0.12 -0.47,0.37 v 0 0 q -0.27,0.26 -0.54,0.67 v 0 0 q -0.65,1.01 -0.72,3.08 v 0 0 q 0.02,2.3 0.47,3.6 v 0 0 q 0.45,1.3 1.6,2.4 v 0 0 q 0,0.61 -0.96,0.9 v 0 0 q -0.36,0.12 -0.84,0.12 v 0 0 q -1.96,0 -3.62,-2.05 z"
         fill="#cccccc"
         id="path27" />
    </g>
  </g>
  <style
     id="style33">text {
  font-size: 64px;
  font-family: Arial Black;
  dominant-baseline: central;
  text-anchor: middle;
}</style>
</svg>
